<svg width="320" height="320" viewBox="0 0 320 320" fill="none" xmlns="http://www.w3.org/2000/svg">
<path fill-rule="evenodd" clip-rule="evenodd" d="M37.0251 95.8369L73.0582 96.8341L60.975 62.8727L98.225 35.809L126.79 57.7954L136.977 23.2178H183.02L193.207 57.7954L221.772 35.809L259.022 62.8727L246.939 96.8341L282.972 95.8369L297.2 139.627L267.463 160L297.2 180.373L282.972 224.163L246.939 223.166L259.022 257.127L221.772 284.191L193.207 262.205L183.02 296.782H136.977L126.79 262.205L98.225 284.191L60.975 257.127L73.0582 223.166L37.0251 224.163L22.7969 180.373L52.5343 160L22.7969 139.627L37.0251 95.8369Z" />
</svg>
